:SAMPLES-PER-SECOND 30
:FULLY-SPECIFIED
:DEGREES
1143
root  72.2159 40.239 -5.25808 -23.7801 -84.2495 31.8948
RightUpLeg  -13.7965 -14.8183 -11.8802
RightLeg  2.83325 -23.9337 6.36146
RightFoot  7.93865 0.0378547 0.0984128
RightToes  -1.16417e-010 0 -3.6325e-017
Spine  27.7171 -1.40141 -0.250224
Spine1  8.64426 -0.412774 -4.43515
HEad  -37.7864 1.11593 0.20838
LeftShoulder1  10.5879 -18.5412 -41.6451
LeftArm  -6.68452 -51.9548 -40.7306
LeftForeArm  1.31906 -30.5768 -6.61478
LeftHand  -0.244104 0.0205437 5.32207
RightShoulder  6.47497 14.2586 30.4704
RightArm  -2.16017 38.5779 43.2686
RightForeArm  -64.9617 38.3087 11.2604
RightHand  -0.132577 -3.99372 -8.5616
LeftUpLeg  -12.39 4.54159 2.89291
LeftLeg  -0.792189 16.6522 -5.1448
LeftFoot  7.17239 0.097707 -0.867566
LeftToes  -2.09216e-011 1.96776e-011 -5.83545e-012
1144
root  72.1529 40.254 -5.37931 -26.7682 -84.5757 34.7598
RightUpLeg  -13.8377 -14.7122 -11.7073
RightLeg  3.10662 -23.6563 6.23882
RightFoot  7.74682 0.0622243 -0.0534308
RightToes  -1.16417e-010 0 -3.6325e-017
Spine  27.9336 -1.328 0.241192
Spine1  7.45379 -0.225617 -4.56359
HEad  -37.453 1.01323 -0.292548
LeftShoulder1  10.2452 -18.5472 -40.1705
LeftArm  -16.1247 -57.1888 -40.3665
LeftForeArm  2.22676 -36.7835 -8.26317
LeftHand  -0.244104 0.0205437 5.32207
RightShoulder  5.91235 13.8111 28.116
RightArm  -9.89374 44.4325 41.768
RightForeArm  -53.2755 44.165 13.3178
RightHand  0.0446966 -7.28155 -4.14776
LeftUpLeg  -12.1052 4.71356 3.0924
LeftLeg  -0.792884 16.889 -5.17718
LeftFoot  7.28269 0.132573 -1.07918
LeftToes  -2.09216e-011 1.96776e-011 -5.83545e-012
1145
root  72.0715 40.2687 -5.48707 -28.0197 -84.6053 35.9438
RightUpLeg  -13.8257 -14.6649 -11.6205
RightLeg  3.44289 -23.6042 6.09498
RightFoot  7.47215 0.0757412 -0.147278
RightToes  -1.16417e-010 0 -3.6325e-017
Spine  28.1243 -1.43302 0.961912
Spine1  6.25936 -0.080264 -5.08294
HEad  -37.1279 0.665886 -0.267056
LeftShoulder1  9.86224 -18.5819 -38.4479
LeftArm  -23.8654 -62.0013 -41.118
LeftForeArm  8.4206 -43.1674 -9.94316
LeftHand  -0.244104 0.0205437 5.32207
RightShoulder  5.32269 13.3011 25.5621
RightArm  -16.3195 50.3958 40.4939
RightForeArm  -47.2101 48.6098 15.204
RightHand  0.073989 -8.77781 -3.94422
LeftUpLeg  -11.8554 4.79814 3.21585
LeftLeg  -0.888193 16.8786 -5.21819
LeftFoot  7.44253 0.148909 -1.17462
LeftToes  -2.09216e-011 1.96776e-011 -5.83545e-012
1146
root  71.9623 40.2875 -5.58391 -28.5505 -84.5451 36.3252
RightUpLeg  -13.6615 -14.6292 -11.5812
RightLeg  3.82131 -23.5943 5.92425
RightFoot  7.16863 0.0855327 -0.222737
RightToes  -1.16417e-010 0 -3.6325e-017
Spine  28.1985 -1.6949 1.83776
Spine1  5.25099 0.0313501 -5.99699
HEad  -36.5017 0.354114 0.0229029
LeftShoulder1  9.40626 -18.5078 -36.5926
LeftArm  -29.1226 -66.3147 -41.5914
LeftForeArm  18.4848 -48.0397 -11.1004
LeftHand  -0.244104 0.0205437 5.32207
RightShoulder  4.85747 12.9433 23.3217
RightArm  -21.9779 56.2709 39.3463
RightForeArm  -43.8663 51.0001 16.3797
RightHand  0.034467 -6.65801 -6.23646
LeftUpLeg  -11.5604 4.87906 3.3335
LeftLeg  -0.837265 16.7288 -5.20587
LeftFoot  7.58888 0.166177 -1.27426
LeftToes  -2.09216e-011 1.96776e-011 -5.83545e-012
1147
root  71.8316 40.3157 -5.67601 -29.0296 -84.5 36.5765
RightUpLeg  -13.3592 -14.5485 -11.5366
RightLeg  4.13644 -23.6178 5.73355
RightFoot  6.91459 0.0966133 -0.305763
RightToes  -1.16417e-010 0 -3.6325e-017
Spine  28.073 -1.87561 2.63738
Spine1  4.61356 0.181532 -6.77194
HEad  -35.7764 0.107681 0.163864
LeftShoulder1  8.87654 -18.2627 -34.6849
LeftArm  -33.0919 -69.8525 -40.137
LeftForeArm  27.3685 -50.3621 -11.4266
LeftHand  -0.244104 0.0205437 5.32207
RightShoulder  4.55345 12.7603 21.6909
RightArm  -27.8838 61.6357 37.7102
RightForeArm  -39.4685 51.5096 16.5287
RightHand  -0.232554 -2.81428 -9.84414
LeftUpLeg  -11.1998 4.95323 3.46552
LeftLeg  -0.686995 16.6032 -5.12319
LeftFoot  7.74522 0.20687 -1.51129
LeftToes  -2.09216e-011 1.96776e-011 -5.83545e-012
1148
root  71.687 40.3504 -5.76244 -29.513 -84.4349 36.7867
RightUpLeg  -12.9686 -14.4304 -11.502
RightLeg  4.40558 -23.6927 5.49596
RightFoot  6.69915 0.104351 -0.367567
RightToes  -1.16417e-010 0 -3.6325e-017
Spine  27.6843 -1.83178 3.17928
Spine1  4.51375 0.403187 -7.03216
HEad  -35.2096 -0.307775 0.0280265
LeftShoulder1  8.36145 -17.9025 -32.9863
LeftArm  -37.0396 -72.2954 -36.0183
LeftForeArm  32.6068 -50.6781 -11.1612
LeftHand  -0.244104 0.0205437 5.32207
RightShoulder  4.3534 12.5005 20.8443
RightArm  -33.6868 66.2858 35.1965
RightForeArm  -34.1529 50.5755 15.7992
RightHand  -0.797419 1.06457 -14.3601
LeftUpLeg  -10.7225 5.00714 3.57847
LeftLeg  -0.656071 16.5547 -5.06334
LeftFoot  7.95068 0.255535 -1.78888
LeftToes  -2.09216e-011 1.96776e-011 -5.83545e-012
1149
root  71.5398 40.3813 -5.83667 -29.617 -84.2879 36.5812
RightUpLeg  -12.5185 -14.3453 -11.5203
RightLeg  4.70738 -23.8004 5.23549
RightFoot  6.45168 0.100692 -0.360277
RightToes  -1.16417e-010 0 -3.6325e-017
Spine  27.1576 -1.70628 3.53339
Spine1  4.76756 0.614174 -7.00631
HEad  -34.7241 -0.894531 -0.13868
LeftShoulder1  7.98607 -17.5419 -31.8778
LeftArm  -40.9222 -73.3666 -29.8162
LeftForeArm  35.7937 -49.9519 -10.6009
LeftHand  -0.244104 0.0205437 5.32207
RightShoulder  4.23372 12.1132 20.7487
RightArm  -37.7443 69.9206 32.2202
RightForeArm  -30.8776 48.8159 14.7306
RightHand  -1.56791 4.39646 -18.7642
LeftUpLeg  -10.1907 5.09956 3.67254
LeftLeg  -0.680213 16.436 -5.09562
LeftFoot  8.14757 0.282029 -1.93192
LeftToes  -2.09216e-011 1.96776e-011 -5.83545e-012
1150
root  71.4047 40.4024 -5.89428 -28.8804 -84.0373 35.5042
RightUpLeg  -12.0231 -14.3598 -11.6035
RightLeg  5.06551 -23.9494 5.02908
RightFoot  6.14076 0.0857851 -0.283848
RightToes  -1.16417e-010 0 -3.6325e-017
Spine  26.7727 -1.64592 3.80765
Spine1  4.92435 0.715196 -6.90029
HEad  -34.1861 -1.37901 -0.163587
LeftShoulder1  7.84934 -17.306 -31.6519
LeftArm  -43.3402 -73.0177 -23.3058
LeftForeArm  38.1226 -48.3327 -9.77178
LeftHand  -0.244104 0.0205437 5.32207
RightShoulder  4.19171 11.8575 20.9393
RightArm  -38.9345 71.9471 29.5749
RightForeArm  -30.7051 46.7435 13.7277
RightHand  -2.12784 6.172 -21.4793
LeftUpLeg  -9.76143 5.25386 3.774
LeftLeg  -0.494892 16.1013 -5.14792
LeftFoot  8.24253 0.29047 -1.97455
LeftToes  -2.09216e-011 1.96776e-011 -5.83545e-012
1151
root  71.2876 40.4165 -5.93304 -27.739 -83.7316 34.01
RightUpLeg  -11.5337 -14.4921 -11.7492
RightLeg  5.49088 -24.0868 4.89094
RightFoot  5.80869 0.0650847 -0.167441
RightToes  -1.16417e-010 0 -3.6325e-017
Spine  26.5391 -1.6726 4.10305
Spine1  4.96315 0.746323 -6.88696
HEad  -33.6893 -1.63301 -0.0626404
LeftShoulder1  7.9261 -17.2693 -32.0893
LeftArm  -42.8184 -71.5101 -18.546
LeftForeArm  39.0658 -45.6035 -8.69933
LeftHand  -0.244104 0.0205437 5.32207
RightShoulder  4.25888 11.9284 21.2689
RightArm  -37.5089 72.1865 27.5234
RightForeArm  -31.2291 44.3565 12.712
RightHand  -2.22964 6.37173 -22.0582
LeftUpLeg  -9.44845 5.38161 3.85465
LeftLeg  -0.108981 15.6741 -5.1253
LeftFoot  8.22642 0.309658 -2.08695
LeftToes  -2.09216e-011 1.96776e-011 -5.83545e-012
1152
root  71.1844 40.4276 -5.94963 -27.1831 -83.457 33.1357
RightUpLeg  -11.1441 -14.7292 -11.9523
RightLeg  5.9875 -24.0671 4.75727
RightFoot  5.52325 0.0391451 -0.00869849
RightToes  -1.16417e-010 0 -3.6325e-017
Spine  26.0092 -1.7184 4.45585
Spine1  5.56106 0.843384 -7.08765
HEad  -33.4068 -1.80314 0.0488062
LeftShoulder1  8.15475 -17.4499 -32.8487
LeftArm  -39.7077 -69.3258 -15.9695
LeftForeArm  38.8719 -41.8657 -7.48916
LeftHand  -0.244104 0.0205437 5.32207
RightShoulder  4.43747 12.2141 21.9434
RightArm  -34.0741 71.2763 26.0196
RightForeArm  -30.6214 41.1778 11.4476
RightHand  -2.08996 6.03511 -21.3032
LeftUpLeg  -9.13901 5.4063 3.85368
LeftLeg  0.199131 15.3919 -5.05775
LeftFoot  8.16071 0.344836 -2.29644
LeftToes  -2.09216e-011 1.96776e-011 -5.83545e-012
1153
root  71.094 40.434 -5.94261 -27.2312 -83.2252 32.9559
RightUpLeg  -10.8961 -15.0315 -12.1808
RightLeg  6.48197 -23.8906 4.59046
RightFoot  5.30372 0.00601715 0.207214
RightToes  -1.16417e-010 0 -3.6325e-017
Spine  24.9779 -1.69549 4.73982
Spine1  6.99576 1.02048 -7.24495
HEad  -33.2819 -2.0038 0.0482236
LeftShoulder1  8.56777 -17.8152 -34.1049
LeftArm  -35.2043 -66.7674 -14.6314
LeftForeArm  38.2429 -37.2837 -6.21604
LeftHand  -0.244104 0.0205437 5.32207
RightShoulder  4.64792 12.4963 22.809
RightArm  -28.2826 69.859 25.6702
RightForeArm  -29.8917 36.8307 9.9312
RightHand  -1.77412 5.14826 -19.6256
LeftUpLeg  -8.84535 5.36753 3.77264
LeftLeg  0.344231 15.2435 -5.02688
LeftFoot  8.07383 0.374398 -2.47657
LeftToes  -2.09216e-011 1.96776e-011 -5.83545e-012
